<?xml version="1.0" standalone="no"?>
<!DOCTYPE svg PUBLIC "-//W3C//DTD SVG 20010904//EN"
 "http://www.w3.org/TR/2001/REC-SVG-20010904/DTD/svg10.dtd">
<svg version="1.0" xmlns="http://www.w3.org/2000/svg"
 width="1024.000000pt" height="1024.000000pt" viewBox="0 0 1024.000000 1024.000000"
 preserveAspectRatio="xMidYMid meet">
<metadata>
Created by potrace 1.16, written by Peter Selinger 2001-2019
</metadata>
<g transform="translate(0.000000,1024.000000) scale(0.100000,-0.100000)"
fill="#000000" stroke="none">
<path d="M5911 8918 c-25 -17 -81 -105 -226 -358 -106 -184 -197 -336 -202
-337 -12 -4 -213 87 -487 222 -196 96 -223 107 -259 102 -23 -3 -50 -15 -63
-29 -32 -33 -776 -1325 -788 -1368 -18 -69 2 -90 237 -246 343 -229 429 -293
422 -312 -3 -9 -93 -168 -200 -352 -2450 -4237 -2499 -4323 -2499 -4372 -1
-40 4 -52 29 -77 17 -16 223 -141 458 -277 419 -241 429 -246 474 -241 30 3
53 13 68 28 13 13 208 346 435 739 226 393 442 767 479 830 37 63 438 758 891
1543 l825 1429 170 -174 c94 -95 213 -225 265 -288 97 -119 210 -283 210 -305
0 -6 10 -20 22 -31 24 -22 104 -186 138 -284 18 -49 24 -95 28 -190 3 -79 10
-135 18 -152 20 -38 68 -61 114 -55 86 11 344 162 521 303 116 93 366 345 478
483 590 726 970 1676 937 2346 -7 153 -17 197 -53 225 -41 32 -69 34 -161 11
-164 -40 -488 -45 -912 -16 -181 13 -418 46 -571 81 l-67 15 141 246 c154 267
163 293 121 350 -13 18 -180 121 -450 277 -468 271 -481 277 -543 234z m379
-423 c187 -108 329 -192 339 -201 2 -2 -189 -341 -227 -402 -7 -10 -27 -8 -96
12 -176 51 -586 204 -586 218 0 6 92 167 262 461 l39 68 32 -19 c18 -11 124
-73 237 -137z m-1331 -300 c83 -41 197 -95 253 -121 57 -26 159 -73 228 -104
310 -143 766 -304 1068 -376 301 -72 434 -92 880 -132 l83 -7 -608 -1053
c-334 -578 -611 -1051 -614 -1050 -4 2 -34 39 -67 83 -179 238 -582 654 -857
884 -173 144 -433 346 -549 426 -40 28 -160 111 -267 186 -106 75 -227 158
-267 184 -50 34 -71 53 -67 63 8 20 626 1092 630 1092 2 0 71 -34 154 -75z
m3204 -828 c-23 -579 -314 -1304 -769 -1918 -242 -326 -545 -618 -786 -756
l-38 -22 -10 42 c-18 72 -71 208 -116 299 -24 48 -44 92 -44 98 0 5 132 238
293 517 161 280 464 803 672 1164 l379 657 161 7 c88 4 180 10 205 14 25 4 48
3 51 -2 3 -5 4 -50 2 -100z m-3273 -1014 c116 -89 420 -342 420 -349 0 -4
-2539 -4404 -2554 -4425 -10 -15 -18 -13 -76 21 -36 21 -170 98 -299 171 -128
74 -235 139 -238 145 -2 7 2485 4333 2604 4527 8 13 18 7 143 -90z"/>
</g>
</svg>
